<?xml version="1.0" encoding="UTF-8" standalone="no"?>
<svg
   xmlns:dc="http://purl.org/dc/elements/1.1/"
   xmlns:cc="http://creativecommons.org/ns#"
   xmlns:rdf="http://www.w3.org/1999/02/22-rdf-syntax-ns#"
   xmlns:svg="http://www.w3.org/2000/svg"
   xmlns="http://www.w3.org/2000/svg"
   xmlns:xlink="http://www.w3.org/1999/xlink"
   xmlns:sodipodi="http://sodipodi.sourceforge.net/DTD/sodipodi-0.dtd"
   sodipodi:docname="logo.svg"
   id="svg8"
   version="1.1"
   viewBox="0 0 507.99997 285.75001"
   height="1080"
   width="1920">
  <defs
     id="defs2">
    <linearGradient
       id="linearGradient1143">
      <stop
         id="stop1139"
         offset="0"
         style="stop-color:#bee9ff;stop-opacity:1" />
      <stop
         id="stop1141"
         offset="1"
         style="stop-color:#75b7d7;stop-opacity:1" />
    </linearGradient>
    <linearGradient
       id="linearGradient1120">
      <stop
         id="stop1116"
         offset="0"
         style="stop-color:#b1b1b1;stop-opacity:1;" />
      <stop
         id="stop1118"
         offset="1"
         style="stop-color:#8b8b8b;stop-opacity:1" />
    </linearGradient>
    <linearGradient
       id="linearGradient1112">
      <stop
         id="stop1108"
         offset="0"
         style="stop-color:#a4a4a4;stop-opacity:1" />
      <stop
         id="stop1110"
         offset="1"
         style="stop-color:#7e7e7e;stop-opacity:1" />
    </linearGradient>
    <linearGradient
       id="linearGradient880">
      <stop
         id="stop876"
         offset="0"
         style="stop-color:#a6a6a6;stop-opacity:1" />
      <stop
         id="stop878"
         offset="1"
         style="stop-color:#7c7c7c;stop-opacity:1" />
    </linearGradient>
    <linearGradient
       gradientTransform="matrix(0.48545176,0,0,0.48545176,5.5911109,22.352844)"
       gradientUnits="userSpaceOnUse"
       y2="384.91516"
       x2="461.13434"
       y1="33.38208"
       x1="28.790279"
       id="linearGradient882"
       xlink:href="#linearGradient880" />
    <linearGradient
       gradientTransform="matrix(1.8347783,0,0,1.8347783,2.5263939,22.352844)"
       gradientUnits="userSpaceOnUse"
       y2="72.662437"
       x2="94.212502"
       y1="72.662437"
       x1="37.818638"
       id="linearGradient1114"
       xlink:href="#linearGradient1112" />
    <linearGradient
       gradientTransform="matrix(1.8347783,0,0,1.8347783,3.8811259,21.512283)"
       gradientUnits="userSpaceOnUse"
       y2="112.57769"
       x2="95.211388"
       y1="112.57769"
       x1="47.102879"
       id="linearGradient1122"
       xlink:href="#linearGradient1120" />
    <linearGradient
       gradientTransform="matrix(1.0444142,0,0,1.0444142,0,-7.7138551)"
       gradientUnits="userSpaceOnUse"
       y2="85.487404"
       x2="74.692352"
       y1="34.46336"
       x1="37.757069"
       id="linearGradient1145"
       xlink:href="#linearGradient1143" />
    <linearGradient
       xlink:href="#linearGradient1143"
       id="linearGradient858"
       gradientUnits="userSpaceOnUse"
       gradientTransform="matrix(1.0444142,0,0,1.0444142,0,-7.7138551)"
       x1="37.757069"
       y1="34.46336"
       x2="74.692352"
       y2="85.487404" />
  </defs>
  <sodipodi:namedview
     width="500px"
     units="px"
     showgrid="false"
     borderopacity="1.0"
     bordercolor="#666666"
     pagecolor="#ffffff"
     id="base" />
  <metadata
     id="metadata5">
    <rdf:RDF>
      <cc:Work
         rdf:about="">
        <dc:format>image/svg+xml</dc:format>
        <dc:type
           rdf:resource="http://purl.org/dc/dcmitype/StillImage" />
        <dc:title></dc:title>
      </cc:Work>
    </rdf:RDF>
  </metadata>
  <g
     id="layer1">
    <rect
       y="0"
       x="0"
       height="285.75"
       width="508"
       id="rect879"
       style="fill:#ffffff;fill-opacity:1;stroke-width:2.35327;stroke-linecap:round;stroke-linejoin:round;paint-order:stroke fill markers" />
    <path
       sodipodi:nodetypes="cccc"
       d="M 508,0 V 285.75 H 0 C 0.43504626,138.5899 508.37219,158.44989 508,0 Z"
       style="fill:#9bd1ec;fill-opacity:1;stroke-width:1.18189;stroke-linecap:round;stroke-linejoin:round;paint-order:stroke fill markers"
       id="rect881" />
    <rect
       ry="2.2067113"
       y="225.86069"
       x="90.304459"
       height="4.4134226"
       width="88.268456"
       id="rect870"
       style="fill:url(#linearGradient1122);fill-opacity:1;stroke:none;stroke-width:2.16851;stroke-linecap:round;stroke-linejoin:round;paint-order:stroke fill markers" />
    <g
       aria-label="S"
       transform="matrix(2.07117,0,0,1.6253669,3.8811259,21.512056)"
       id="text858"
       style="font-style:normal;font-variant:normal;font-weight:bold;font-stretch:normal;font-size:75.5796px;line-height:1.25;font-family:'League Spartan';font-variant-ligatures:normal;font-variant-caps:normal;font-variant-numeric:normal;font-variant-east-asian:normal;fill:url(#linearGradient1145);fill-opacity:1;stroke:none;stroke-width:1.8895;stroke-opacity:1">
      <path
         d="m 60.032316,28.72802 q 4.156878,0 7.633539,0.906955 3.476662,0.906955 5.66847,2.040649 2.191808,1.058115 2.947604,1.738331 l -5.366151,8.993972 q -1.587172,-1.133694 -4.232458,-2.342967 -2.645286,-1.209274 -5.441731,-1.209274 -3.023184,0 -4.837094,1.058114 -1.738331,1.058115 -1.738331,3.098764 0,2.040649 2.040649,3.552241 2.116229,1.511592 6.953323,3.325502 13.679908,4.988254 13.679908,15.796136 0,4.837094 -2.645286,8.162597 -2.569707,3.325502 -6.802164,4.988253 -4.232458,1.587172 -9.296291,1.587172 -4.685935,0 -8.767233,-1.058115 -4.005719,-1.058114 -6.651004,-2.342967 -2.569707,-1.360433 -3.325503,-2.116229 l 5.59289,-9.37187 q 0.755796,0.604637 2.872025,1.738331 2.191808,1.133694 4.988254,2.040649 2.796445,0.906955 5.290571,0.906955 3.476662,0 5.290572,-1.360433 1.813911,-1.360433 1.813911,-3.62782 0,-2.418548 -2.342968,-4.156878 -2.267388,-1.738331 -7.633539,-3.77898 -5.74405,-2.342968 -9.145132,-5.74405 -3.325502,-3.476661 -3.325502,-9.22071 0,-4.005719 2.267388,-7.104483 2.342968,-3.098763 6.197527,-4.761514 3.854559,-1.738331 8.313756,-1.738331 z"
         style="font-style:normal;font-variant:normal;font-weight:bold;font-stretch:normal;font-size:75.5796px;font-family:'League Spartan';font-variant-ligatures:normal;font-variant-caps:normal;font-variant-numeric:normal;font-variant-east-asian:normal;fill:url(#linearGradient858);fill-opacity:1;stroke:none;stroke-width:1.8895;stroke-opacity:1"
         id="path855" />
    </g>
    <path
       d="m 112.87186,225.86048 v 4.41363 h 2.91272 16.70256 2.91271 v -4.41363 h -2.91271 -16.70256 z"
       style="fill:#818181;fill-opacity:1;stroke:none;stroke-width:2.16851;stroke-linecap:round;stroke-linejoin:round;paint-order:stroke fill markers"
       id="rect870-8" />
    <path
       d="m 119.72774,152.30362 c -3.26002,0 -5.88515,2.62416 -5.88515,5.8842 v 35.79827 c 0,3.26004 2.62513,5.88421 5.88515,5.88421 -3.26002,0 -5.88515,2.6251 -5.88515,5.88515 v 35.79732 c 0,3.26004 2.62513,5.88421 5.88515,5.88421 h 7.84593 c 3.26004,0 5.88421,-2.62417 5.88421,-5.88421 v -35.79732 c 0,-3.26005 -2.62417,-5.88515 -5.88421,-5.88515 3.26004,0 5.88421,-2.62417 5.88421,-5.88421 v -35.79827 c 0,-3.26004 -2.62417,-5.8842 -5.88421,-5.8842 z"
       style="fill:#7a7a7a;fill-opacity:1;stroke:none;stroke-width:2.16851;stroke-linecap:round;stroke-linejoin:round;paint-order:stroke fill markers"
       id="rect868" />
    <path
       d="m 119.72697,199.87081 c -3.26005,0 -5.88421,2.62416 -5.88421,5.8842 v 3.67123 h 19.61529 v -3.67123 c 0,-3.26004 -2.62416,-5.8842 -5.88422,-5.8842 z"
       style="fill:#565656;fill-opacity:1;stroke:none;stroke-width:2.16851;stroke-linecap:round;stroke-linejoin:round;paint-order:stroke fill markers"
       id="rect868-5" />
    <path
       sodipodi:nodetypes="ssssccsssscssccsss"
       d="m 32.123144,38.313018 c -3.695942,0 -6.671172,2.975241 -6.671172,6.671172 v 16.694041 c 0,3.695929 2.97523,6.672116 6.671172,6.672116 H 194.99882 V 176.47619 H 32.123144 c -3.695942,0 -6.671172,2.97524 -6.671172,6.67117 v 16.69405 c 0,3.69594 2.97523,6.67213 6.671172,6.67213 H 193.90373 218.365 c 3.69595,0 6.67115,-2.97619 6.67115,-6.67213 V 175.38014 69.445456 44.98419 c 0,-3.695931 -2.97522,-6.671172 -6.67115,-6.671172 z"
       style="fill:url(#linearGradient882);fill-opacity:1;stroke:none;stroke-width:2.45845;stroke-linecap:round;stroke-linejoin:round;paint-order:stroke fill markers"
       id="rect833" />
    <path
       id="rect868-5-3"
       style="fill:#565656;fill-opacity:1;stroke:none;stroke-width:2.16851;stroke-linecap:round;stroke-linejoin:round;paint-order:stroke fill markers"
       d="m 119.72689,152.30363 c -3.26003,0 -5.8842,2.62419 -5.8842,5.88422 v 3.67124 h 19.61528 v -3.67124 c 0,-3.26003 -2.62416,-5.88422 -5.88421,-5.88422 z" />
    <rect
       ry="2.2067134"
       y="152.23967"
       x="71.915222"
       height="6.865324"
       width="103.47024"
       id="rect1020"
       style="fill:url(#linearGradient1114);fill-opacity:1;stroke:none;stroke-width:2.16851;stroke-linecap:round;stroke-linejoin:round;paint-order:stroke fill markers" />
    <path
       d="m 256.99248,101.22959 c -1.15079,0 -2.22339,0.2245 -3.21812,0.67312 -0.99476,0.42911 -1.7947,1.04305 -2.39934,1.84275 -0.58515,0.7997 -0.87766,1.71639 -0.87766,2.75016 0,1.48237 0.42915,2.67232 1.28736,3.56955 0.87773,0.87772 2.05805,1.61925 3.54041,2.22391 1.38485,0.52663 2.36957,1.01418 2.95472,1.46278 0.60464,0.44862 0.90741,0.98491 0.90741,1.60907 0,0.58515 -0.23415,1.05342 -0.70227,1.40451 -0.46812,0.35109 -1.15067,0.52625 -2.04788,0.52625 -0.64367,0 -1.32683,-0.11678 -2.04852,-0.35083 -0.72167,-0.23407 -1.36509,-0.49769 -1.93076,-0.79027 -0.54612,-0.29257 -0.91688,-0.51648 -1.11194,-0.67252 l -2.16504,3.62782 c 0.19504,0.19506 0.62419,0.46832 1.28737,0.8194 0.68267,0.33159 1.54097,0.63375 2.57473,0.90681 1.05327,0.27307 2.18482,0.4097 3.39416,0.4097 1.30682,0 2.50641,-0.20524 3.59868,-0.61485 1.09228,-0.4291 1.96985,-1.07253 2.633,-1.93075 0.68267,-0.85822 1.02396,-1.91154 1.02396,-3.15986 0,-2.7892 -1.76535,-4.82724 -5.29575,-6.11456 -1.24833,-0.46812 -2.14576,-0.89727 -2.69188,-1.28737 -0.52664,-0.3901 -0.78968,-0.84874 -0.78968,-1.37537 0,-0.52664 0.2245,-0.92631 0.6731,-1.19937 0.46813,-0.27307 1.09231,-0.4097 1.87249,-0.4097 0.7217,0 1.42352,0.1559 2.10618,0.46798 0.68267,0.31207 1.22919,0.61483 1.6388,0.9074 l 2.07704,-3.48214 c -0.19506,-0.17554 -0.57544,-0.39946 -1.14111,-0.67253 -0.56563,-0.29258 -1.29692,-0.5562 -2.19416,-0.79026 -0.89722,-0.23406 -1.88254,-0.35083 -2.9553,-0.35083 z m 72.814,0.35083 v 3.77411 h 4.59289 v 15.53584 h 4.3301 v -15.53584 h 4.5935 v -3.77411 z m 65.81999,2.37019 v 4.94433 h -2.04791 v 3.59869 h 2.04791 v 4.62264 c -3e-5,1.36535 0.37015,2.39941 1.11133,3.10158 0.74122,0.68267 1.73613,1.02395 2.98446,1.02395 0.8777,0 1.67764,-0.11737 2.39931,-0.35143 0.74121,-0.21455 1.20948,-0.40956 1.40452,-0.58511 l -1.52164,-3.27699 c -0.039,0.078 -0.16602,0.16589 -0.38057,0.26342 -0.19506,0.0975 -0.40933,0.14627 -0.64339,0.14627 -0.68267,0 -1.02395,-0.56519 -1.02395,-1.69647 v -3.24786 h 2.72101 v -3.59869 h -2.72101 v -4.94433 z m -120.82786,4.5935 c -1.03375,0 -1.91133,0.22391 -2.633,0.67252 -0.7217,0.44862 -1.20921,0.92653 -1.46279,1.43365 v -1.75534 h -4.38894 v 18.08086 h 4.3592 v -8.04532 c 0.0975,0.25356 0.33167,0.56535 0.70227,0.93594 0.37058,0.3706 0.8485,0.69262 1.43363,0.96568 0.60466,0.27307 1.26794,0.4097 1.98963,0.4097 1.13128,0 2.13587,-0.28289 3.01357,-0.84853 0.89724,-0.56564 1.58941,-1.32644 2.07704,-2.28219 0.50713,-0.97525 0.76113,-2.04783 0.76113,-3.21813 0,-1.17029 -0.254,-2.23324 -0.76113,-3.18899 -0.48763,-0.97525 -1.1798,-1.74627 -2.07704,-2.31191 -0.8777,-0.56564 -1.88229,-0.84794 -3.01357,-0.84794 z m 13.2959,0 c -1.15079,0 -2.17463,0.2823 -3.07187,0.84794 -0.87773,0.56564 -1.56027,1.33666 -2.04788,2.31191 -0.48764,0.95575 -0.73141,2.0187 -0.73141,3.18899 0,1.1703 0.24377,2.24288 0.73141,3.21813 0.48761,0.97525 1.17015,1.74567 2.04788,2.31132 0.89724,0.54614 1.92108,0.8194 3.07187,0.8194 0.72166,0 1.37532,-0.13663 1.96047,-0.4097 0.58515,-0.27306 1.06308,-0.59508 1.43365,-0.96568 0.37061,-0.37059 0.61438,-0.68238 0.73141,-0.93594 v 1.95989 h 4.33007 v -11.99543 h -4.3592 v 1.75534 c -0.23409,-0.48762 -0.72161,-0.9559 -1.46279,-1.40451 -0.7217,-0.46812 -1.59985,-0.70166 -2.63361,-0.70166 z m 19.73271,0 c -0.62415,0 -1.22845,0.10714 -1.8136,0.32169 -0.58515,0.19505 -1.08232,0.45809 -1.49193,0.78967 -0.4096,0.31208 -0.67323,0.62446 -0.79026,0.93654 v -1.69707 h -4.33009 v 11.99543 h 4.33009 v -6.37798 c 0,-0.87772 0.20465,-1.56991 0.61426,-2.07703 0.42909,-0.50714 0.98526,-0.76113 1.66793,-0.76113 1.26782,0 1.90162,0.94618 1.90162,2.83816 v 6.37798 h 4.00838 v -6.37798 c 0,-0.85821 0.20466,-1.54076 0.61426,-2.0479 0.42909,-0.52663 0.98526,-0.79026 1.66793,-0.79026 0.72167,0 1.21886,0.24377 1.49192,0.7314 0.29258,0.46811 0.43884,1.17053 0.43884,2.10676 v 6.37798 h 4.30096 v -7.05109 c 0,-1.75545 -0.41953,-3.07181 -1.25826,-3.94953 -0.81919,-0.89722 -1.94053,-1.34564 -3.36438,-1.34564 -0.99476,0 -1.91146,0.24377 -2.75016,0.73139 -0.81921,0.46812 -1.32661,0.99478 -1.52167,1.57993 -0.68266,-1.54089 -1.92138,-2.31132 -3.71584,-2.31132 z m 63.25477,0 c -1.30682,0 -2.45764,0.27266 -3.4524,0.8188 -0.97524,0.54614 -1.73606,1.28768 -2.28218,2.22391 -0.52664,0.93625 -0.78969,1.98957 -0.78969,3.15986 0,1.36535 0.29252,2.53544 0.87767,3.51068 0.60467,0.97525 1.42385,1.71619 2.45761,2.22332 1.03376,0.50712 2.21408,0.76112 3.54041,0.76112 2.80873,0 4.75889,-0.58564 5.85116,-1.75594 l -1.90162,-2.77929 c -0.42912,0.35109 -0.97506,0.66347 -1.63822,0.93654 -0.66315,0.27307 -1.37519,0.4097 -2.13589,0.4097 -0.83873,0 -1.51166,-0.24436 -2.01878,-0.73199 -0.50712,-0.50713 -0.78998,-1.11144 -0.84853,-1.81361 h 8.71843 c 0.0195,-0.0975 0.0297,-0.30218 0.0297,-0.61426 0,-2.04802 -0.58564,-3.61836 -1.75595,-4.71064 -1.15078,-1.09227 -2.70129,-1.6382 -4.65177,-1.6382 z m 14.68613,0 c -1.30685,0 -2.45767,0.27266 -3.45243,0.8188 -0.97524,0.54614 -1.73603,1.28768 -2.28215,2.22391 -0.52664,0.93625 -0.79029,1.98957 -0.79029,3.15986 0,1.36535 0.29254,2.53544 0.87769,3.51068 0.60464,0.97525 1.42443,1.71619 2.45819,2.22332 1.03376,0.50712 2.21347,0.76112 3.53981,0.76112 2.80873,0 4.75946,-0.58564 5.85173,-1.75594 l -1.9022,-2.77929 c -0.42912,0.35109 -0.97503,0.66347 -1.63821,0.93654 -0.66316,0.27307 -1.3752,0.4097 -2.1359,0.4097 -0.8387,0 -1.51162,-0.24436 -2.01878,-0.73199 -0.50709,-0.50713 -0.78998,-1.11144 -0.84853,-1.81361 h 8.71904 c 0.0195,-0.0975 0.0291,-0.30218 0.0291,-0.61426 0,-2.04802 -0.58503,-3.61836 -1.75533,-4.71064 -1.15079,-1.09227 -2.70129,-1.6382 -4.65178,-1.6382 z m 24.75973,0 c -1.50188,0 -2.77911,0.31179 -3.83238,0.93595 -1.03376,0.62415 -1.55081,1.50172 -1.55081,2.63301 0,1.11178 0.37076,1.96045 1.11197,2.5456 0.7607,0.56564 1.65752,0.95567 2.69128,1.17023 0.70218,0.15604 1.21923,0.33179 1.5508,0.52684 0.33158,0.17555 0.49711,0.42895 0.49711,0.76053 0,0.33159 -0.17518,0.58498 -0.52624,0.76053 -0.35113,0.17555 -0.83864,0.26342 -1.46279,0.26342 -0.62416,0 -1.20979,-0.11677 -1.75595,-0.35083 -0.54612,-0.25356 -0.98492,-0.50756 -1.3165,-0.76112 l -1.40394,2.89702 c 0.33161,0.25357 0.91664,0.53586 1.75537,0.84794 0.8387,0.31208 1.8818,0.46857 3.13011,0.46857 1.61891,0 3.00388,-0.31238 4.15467,-0.93654 1.1703,-0.64366 1.75533,-1.71625 1.75533,-3.21813 0,-1.11178 -0.37015,-1.94059 -1.11136,-2.48673 -0.74118,-0.54613 -1.67773,-0.93676 -2.80901,-1.17083 -0.70218,-0.13653 -1.22884,-0.30205 -1.57994,-0.4971 -0.35109,-0.19505 -0.52624,-0.42919 -0.52624,-0.70226 0,-0.29257 0.15591,-0.51648 0.46797,-0.67252 0.33158,-0.15604 0.75111,-0.23429 1.25823,-0.23429 0.58515,0 1.12144,0.0975 1.60908,0.29256 0.4876,0.19505 0.84816,0.38043 1.08223,0.55598 l 1.43365,-2.60388 c -0.27309,-0.17555 -0.8485,-0.39042 -1.72623,-0.64398 -0.8777,-0.25356 -1.84317,-0.37997 -2.89641,-0.37997 z m -68.2211,0.35083 3.95011,11.99543 h 4.03752 l 2.80843,-6.84595 2.80903,6.84595 h 4.03752 l 3.94953,-11.99543 h -4.65177 l -1.9605,6.6414 -2.72102,-6.40712 h -2.89645 l -2.77929,6.40712 -1.93075,-6.6414 z m 28.83412,2.5456 c 0.64367,0 1.15045,0.22391 1.52106,0.67253 0.39006,0.42911 0.60491,0.966 0.64397,1.60966 h -4.44722 c 0.039,-0.66317 0.26293,-1.20969 0.67253,-1.6388 0.42909,-0.42911 0.96599,-0.64339 1.60966,-0.64339 z m 14.68552,0 c 0.64367,0 1.15106,0.22391 1.52164,0.67253 0.39009,0.42911 0.60436,0.966 0.64339,1.60966 h -4.44721 c 0.039,-0.66317 0.26353,-1.20969 0.6731,-1.6388 0.42912,-0.42911 0.96541,-0.64339 1.60908,-0.64339 z m -112.31514,0.52625 c 0.78018,0 1.44349,0.28289 1.98961,0.84854 0.56567,0.54613 0.84856,1.23891 0.84856,2.07762 0,0.83872 -0.28289,1.53091 -0.84856,2.07704 -0.54612,0.54614 -1.20943,0.8194 -1.98961,0.8194 -0.81921,0 -1.49214,-0.27326 -2.01878,-0.8194 -0.52663,-0.54613 -0.78965,-1.23832 -0.78965,-2.07704 0,-0.83871 0.26302,-1.53149 0.78965,-2.07762 0.52664,-0.56565 1.19957,-0.84854 2.01878,-0.84854 z m 15.87062,0 c 0.81921,0 1.49214,0.28289 2.01878,0.84854 0.5266,0.54613 0.79026,1.23891 0.79026,2.07762 0,0.83872 -0.26366,1.53091 -0.79026,2.07704 -0.52664,0.54614 -1.19957,0.8194 -2.01878,0.8194 -0.78021,0 -1.45314,-0.27326 -2.01877,-0.8194 -0.54612,-0.54613 -0.81879,-1.23832 -0.81879,-2.07704 0,-0.83871 0.27267,-1.53149 0.81879,-2.07762 0.56563,-0.56565 1.23856,-0.84854 2.01877,-0.84854 z m -25.84491,22.35623 c -3.22588,0 -6.08363,0.69095 -8.57217,2.07347 -2.45782,1.38253 -4.36255,3.27223 -5.71437,5.66859 -1.35182,2.39638 -2.02769,5.06918 -2.02769,8.01856 0,2.98011 0.63009,5.66798 1.88975,8.06435 1.29034,2.39637 3.16438,4.28606 5.62221,5.66859 2.45779,1.3518 5.39204,2.02768 8.80227,2.02768 1.32107,0 2.61139,-0.10723 3.87102,-0.32229 1.29035,-0.21506 2.2578,-0.49156 2.90299,-0.8295 v -6.82098 c -1.56688,1.13673 -3.82462,1.70539 -6.77401,1.70539 -1.81266,0 -3.42585,-0.39938 -4.8391,-1.19817 -1.38251,-0.7988 -2.45779,-1.90478 -3.22586,-3.31803 -0.76806,-1.44397 -1.15237,-3.10295 -1.15237,-4.97704 0,-1.87408 0.38431,-3.53307 1.15237,-4.97703 0.79882,-1.44397 1.88914,-2.54996 3.27165,-3.31803 1.41325,-0.79879 3.01137,-1.19818 4.79331,-1.19818 3.07226,0 5.33003,0.59879 6.77401,1.79697 v -6.86617 c -1.4747,-0.79879 -3.73246,-1.19818 -6.77401,-1.19818 z m 21.15152,11.52092 c -2.05842,0 -3.90174,0.43011 -5.53006,1.29035 -1.59756,0.86023 -2.85716,2.05839 -3.77886,3.59453 -0.89097,1.53613 -1.33671,3.25656 -1.33671,5.16137 0,1.90481 0.44574,3.62523 1.33671,5.16137 0.9217,1.50541 2.1813,2.6885 3.77886,3.54874 1.62832,0.82951 3.47164,1.24396 5.53006,1.24396 2.02769,0 3.84029,-0.41445 5.43786,-1.24396 1.5976,-0.86024 2.84213,-2.04333 3.73307,-3.54874 0.89097,-1.53614 1.33614,-3.25656 1.33614,-5.16137 0,-1.90481 -0.44517,-3.62524 -1.33614,-5.16137 -0.89094,-1.53614 -2.13547,-2.7343 -3.73307,-3.59453 -1.59757,-0.86024 -3.41017,-1.29035 -5.43786,-1.29035 z m 27.44862,0 c -0.98312,0 -1.9355,0.16867 -2.85719,0.50663 -0.92169,0.30722 -1.7048,0.72226 -2.34996,1.24455 -0.64519,0.49157 -1.06021,0.98312 -1.24456,1.47468 v -2.67285 h -6.8204 v 18.89431 h 6.8204 v -10.04625 c 0,-1.38252 0.32287,-2.47344 0.96806,-3.27223 0.67588,-0.7988 1.55117,-1.19818 2.62646,-1.19818 1.99697,0 2.99575,1.49031 2.99575,4.47041 v 10.04625 h 6.31374 v -10.04625 c 0,-1.35179 0.32229,-2.42706 0.96748,-3.22585 0.67587,-0.82952 1.55178,-1.24456 2.62706,-1.24456 1.13676,0 1.91986,0.38432 2.34996,1.15239 0.46084,0.73735 0.69155,1.84333 0.69155,3.31802 v 10.04625 h 6.77401 v -11.10647 c 0,-2.76504 -0.66023,-4.83847 -1.9813,-6.221 -1.29035,-1.41324 -3.05716,-2.11985 -5.29992,-2.11985 -1.56685,0 -3.01079,0.38373 -4.33186,1.1518 -1.29035,0.73734 -2.08913,1.56683 -2.39635,2.48852 -1.07529,-2.4271 -3.02645,-3.64032 -5.85293,-3.64032 z m 37.26357,0 c -1.62832,0 -3.01079,0.35301 -4.14755,1.05963 -1.13672,0.70662 -1.90479,1.45961 -2.30416,2.2584 v -2.76502 h -6.91256 v 28.47971 h 6.86616 v -12.67331 c 0.15362,0.3994 0.52228,0.89154 1.106,1.47527 0.58375,0.58374 1.33672,1.09035 2.25841,1.52047 0.95241,0.43012 1.99695,0.64517 3.1337,0.64517 1.78191,0 3.36438,-0.44517 4.74692,-1.33613 1.41325,-0.89096 2.50355,-2.08971 3.27164,-3.59512 0.79879,-1.53614 1.19816,-3.22584 1.19816,-5.0692 0,-1.84336 -0.39937,-3.51741 -1.19816,-5.02283 -0.76809,-1.53614 -1.85839,-2.74995 -3.27164,-3.64091 -1.38254,-0.89096 -2.96501,-1.33613 -4.74692,-1.33613 z m 24.99875,0 c -1.56685,0 -2.87284,0.35301 -3.91741,1.05963 -1.01385,0.6759 -1.70538,1.39816 -2.07406,2.16623 v -2.67285 h -6.86616 v 18.89431 h 6.86616 v -9.53962 c 0,-1.04458 0.35358,-2.02767 1.06021,-2.94936 0.73735,-0.95241 1.76684,-1.42829 3.08791,-1.42829 0.73735,0 1.36686,0.12288 1.88914,0.36866 0.553,0.24579 0.96806,0.53735 1.24456,0.8753 l 2.71864,-5.62221 c -0.49159,-0.30722 -1.09035,-0.56807 -1.79698,-0.78313 -0.67591,-0.24578 -1.41322,-0.36867 -2.21201,-0.36867 z m 14.59991,0 c -2.05841,0 -3.87101,0.43011 -5.43789,1.29035 -1.53613,0.86023 -2.73426,2.02767 -3.59452,3.50236 -0.8295,1.47469 -1.24456,3.13367 -1.24456,4.97703 0,2.15059 0.46085,3.99391 1.38251,5.53005 0.95241,1.53613 2.24273,2.70356 3.87105,3.50236 1.62828,0.79879 3.48725,1.19817 5.57642,1.19817 4.42407,0 7.49625,-0.92165 9.21672,-2.76502 l -2.99572,-4.37825 c -0.67591,0.55301 -1.53613,1.04456 -2.5807,1.47468 -1.04457,0.43011 -2.16561,0.64517 -3.3638,0.64517 -1.32107,0 -2.38129,-0.38372 -3.18007,-1.15179 -0.79882,-0.79879 -1.24398,-1.75117 -1.33614,-2.85719 h 13.73293 c 0.0308,-0.15361 0.0458,-0.47649 0.0458,-0.96805 0,-3.22588 -0.92166,-5.6987 -2.76501,-7.41918 -1.81263,-1.72047 -4.25474,-2.58069 -7.32701,-2.58069 z m 22.34849,0 c -2.36563,0 -4.37823,0.49155 -6.03726,1.47468 -1.62829,0.98313 -2.44212,2.36562 -2.44212,4.14753 0,1.7512 0.58372,3.0873 1.75117,4.00899 1.19819,0.89096 2.61138,1.5054 4.2397,1.84334 1.10601,0.24579 1.91986,0.52229 2.44214,0.82951 0.52229,0.27651 0.78372,0.67589 0.78372,1.19817 0,0.5223 -0.2765,0.92168 -0.82951,1.19818 -0.55303,0.27651 -1.32106,0.41505 -2.30419,0.41505 -0.98313,0 -1.90479,-0.18433 -2.76501,-0.553 -0.86026,-0.3994 -1.55178,-0.79879 -2.07407,-1.19818 l -2.212,4.56258 c 0.52228,0.3994 1.44394,0.84457 2.76501,1.33613 1.32109,0.49157 2.965,0.73734 4.93126,0.73734 2.54998,0 4.73124,-0.49155 6.54387,-1.47468 1.84338,-1.01385 2.76501,-2.70355 2.76501,-5.0692 0,-1.75119 -0.58369,-3.05718 -1.75116,-3.91741 -1.16748,-0.86024 -2.64211,-1.47467 -4.42405,-1.84335 -1.10601,-0.21505 -1.93548,-0.47589 -2.48851,-0.78312 -0.55301,-0.30723 -0.82951,-0.67589 -0.82951,-1.10601 0,-0.46084 0.24579,-0.81444 0.73735,-1.06022 0.52228,-0.24579 1.18251,-0.36867 1.9813,-0.36867 0.92169,0 1.76681,0.1536 2.53491,0.46083 0.76806,0.30723 1.33671,0.59939 1.70537,0.87589 l 2.2578,-4.10174 c -0.4301,-0.27651 -1.33611,-0.61445 -2.71861,-1.01385 -1.38254,-0.39939 -2.90357,-0.59879 -4.56261,-0.59879 z m 19.80171,0 c -2.36564,0 -4.37823,0.49155 -6.03724,1.47468 -1.62832,0.98313 -2.44214,2.36562 -2.44214,4.14753 0,1.7512 0.58372,3.0873 1.75116,4.00899 1.1982,0.89096 2.61142,1.5054 4.23971,1.84334 1.10603,0.24579 1.92044,0.52229 2.44272,0.82951 0.52228,0.27651 0.78313,0.67589 0.78313,1.19817 0,0.5223 -0.2765,0.92168 -0.8295,1.19818 -0.553,0.27651 -1.32107,0.41505 -2.3042,0.41505 -0.98312,0 -1.90478,-0.18433 -2.76501,-0.553 -0.86022,-0.3994 -1.55178,-0.79879 -2.07406,-1.19818 l -2.21201,4.56258 c 0.52229,0.3994 1.44395,0.84457 2.76501,1.33613 1.32107,0.49157 2.96501,0.73734 4.93126,0.73734 2.54998,0 4.73124,-0.49155 6.54387,-1.47468 1.84339,-1.01385 2.76505,-2.70355 2.76505,-5.0692 0,-1.75119 -0.58372,-3.05718 -1.7512,-3.91741 -1.16747,-0.86024 -2.6421,-1.47467 -4.42402,-1.84335 -1.10603,-0.21505 -1.93553,-0.47589 -2.48854,-0.78312 -0.553,-0.30723 -0.8295,-0.67589 -0.8295,-1.10601 0,-0.46084 0.24578,-0.81444 0.73735,-1.06022 0.52228,-0.24579 1.18309,-0.36867 1.9819,-0.36867 0.92166,0 1.76624,0.1536 2.5343,0.46083 0.76807,0.30723 1.33672,0.59939 1.70538,0.87589 l 2.25783,-4.10174 c -0.43013,-0.27651 -1.33614,-0.61445 -2.71865,-1.01385 -1.38253,-0.39939 -2.90356,-0.59879 -4.5626,-0.59879 z m 20.95411,0 c -2.05842,0 -3.90174,0.43011 -5.53006,1.29035 -1.59756,0.86023 -2.85716,2.05839 -3.77885,3.59453 -0.89095,1.53613 -1.33672,3.25656 -1.33672,5.16137 0,1.90481 0.44577,3.62523 1.33672,5.16137 0.92169,1.50541 2.18129,2.6885 3.77885,3.54874 1.62832,0.82951 3.47164,1.24396 5.53006,1.24396 2.02769,0 3.84029,-0.41445 5.43786,-1.24396 1.5976,-0.86024 2.84152,-2.04333 3.73249,-3.54874 0.89098,-1.53614 1.33672,-3.25656 1.33672,-5.16137 0,-1.90481 -0.44574,-3.62524 -1.33672,-5.16137 -0.89097,-1.53614 -2.13489,-2.7343 -3.73249,-3.59453 -1.59757,-0.86024 -3.41017,-1.29035 -5.43786,-1.29035 z m 26.43478,0 c -1.56685,0 -2.87282,0.35301 -3.91742,1.05963 -1.01381,0.6759 -1.70476,1.39816 -2.07345,2.16623 v -2.67285 h -6.86677 v 18.89431 h 6.86677 v -9.53962 c 0,-1.04458 0.35301,-2.02767 1.05964,-2.94936 0.73734,-0.95241 1.76681,-1.42829 3.08788,-1.42829 0.73734,0 1.36746,0.12288 1.88975,0.36866 0.553,0.24579 0.96745,0.53735 1.24395,0.8753 l 2.71925,-5.62221 c -0.49157,-0.30722 -1.09097,-0.56807 -1.79756,-0.78313 -0.67591,-0.24578 -1.41323,-0.36867 -2.21204,-0.36867 z m -89.44693,4.56199 c 1.01385,0 1.8126,0.3536 2.39635,1.06022 0.61444,0.6759 0.95241,1.52045 1.01385,2.53431 h -7.00471 c 0.0614,-1.04458 0.41444,-1.90479 1.0596,-2.58069 0.67591,-0.6759 1.52106,-1.01384 2.53491,-1.01384 z m -41.71852,0.82951 c 1.22892,0 2.27345,0.44576 3.1337,1.33672 0.89095,0.86024 1.33672,1.95057 1.33672,3.27165 0,1.32108 -0.44577,2.41199 -1.33672,3.27223 -0.86025,0.86024 -1.90478,1.29035 -3.1337,1.29035 -1.29034,0 -2.34995,-0.43011 -3.17948,-1.29035 -0.82951,-0.86024 -1.24453,-1.95115 -1.24453,-3.27223 0,-1.32108 0.41502,-2.41141 1.24453,-3.27165 0.82953,-0.89096 1.88914,-1.33672 3.17948,-1.33672 z m -62.68449,0.2765 c 1.19816,0 2.15054,0.41504 2.85716,1.24456 0.73735,0.79879 1.10604,1.82768 1.10604,3.08731 0,1.29035 -0.36869,2.33489 -1.10604,3.13369 -0.70662,0.79879 -1.659,1.19817 -2.85716,1.19817 -1.22891,0 -2.21201,-0.39938 -2.94936,-1.19817 -0.73735,-0.7988 -1.106,-1.84334 -1.106,-3.13369 0,-1.25963 0.36865,-2.28852 1.106,-3.08731 0.73735,-0.82952 1.72045,-1.24456 2.94936,-1.24456 z m 167.41516,0 c 1.19819,0 2.15057,0.41504 2.8572,1.24456 0.73734,0.79879 1.106,1.82768 1.106,3.08731 0,1.29035 -0.36866,2.33489 -1.106,3.13369 -0.70663,0.79879 -1.65901,1.19817 -2.8572,1.19817 -1.22891,0 -2.21201,-0.39938 -2.94936,-1.19817 -0.73734,-0.7988 -1.106,-1.84334 -1.106,-3.13369 0,-1.25963 0.36866,-2.28852 1.106,-3.08731 0.73735,-0.82952 1.72045,-1.24456 2.94936,-1.24456 z"
       style="font-style:normal;font-variant:normal;font-weight:bold;font-stretch:normal;font-size:25.4263px;line-height:1.25;font-family:'League Spartan';font-variant-ligatures:normal;font-variant-caps:normal;font-variant-numeric:normal;font-variant-east-asian:normal;writing-mode:lr-tb;fill:#9bd1ec;fill-opacity:1;stroke-width:0.564724"
       id="path1041" />
    <path
       transform="scale(0.26458333)"
       d="M 1504.5234 392.88477 C 1501.4431 394.07441 1498.3838 395.27161 1495.2812 396.45312 L 1495.2812 411.57227 L 1487.541 411.57227 L 1487.541 425.17188 L 1495.2812 425.17188 L 1495.2812 442.64453 C 1495.2811 447.80491 1496.6811 451.71332 1499.4824 454.36719 C 1502.2839 456.94736 1506.0436 458.23633 1510.7617 458.23633 C 1514.079 458.23633 1517.1025 457.79284 1519.8301 456.9082 C 1522.6315 456.09731 1524.4015 455.36076 1525.1387 454.69727 L 1519.3867 442.3125 C 1519.2393 442.6073 1518.7601 442.93802 1517.9492 443.30664 C 1517.212 443.67514 1516.4022 443.85938 1515.5176 443.85938 C 1512.9374 443.85938 1511.6465 441.72297 1511.6465 437.44727 L 1511.6465 425.17188 L 1521.9316 425.17188 L 1521.9316 411.57227 L 1511.6465 411.57227 L 1511.6465 392.88477 L 1504.5234 392.88477 z M 1551.6016 410.24609 C 1545.9252 410.24609 1541.0981 411.42417 1537.1172 413.7832 C 1533.2101 416.1422 1531.2559 419.45863 1531.2559 423.73438 C 1531.2559 427.93638 1532.6576 431.14388 1535.459 433.35547 C 1538.3341 435.49332 1541.7237 436.96836 1545.6309 437.7793 C 1548.2848 438.36905 1550.2371 439.03233 1551.4902 439.76953 C 1552.7435 440.43303 1553.3691 441.39132 1553.3691 442.64453 C 1553.3691 443.89778 1552.7077 444.85604 1551.3809 445.51953 C 1550.0538 446.18303 1548.2106 446.51367 1545.8516 446.51367 C 1543.4925 446.51367 1541.2791 446.07214 1539.2148 445.1875 C 1537.1508 444.22916 1535.4935 443.27084 1534.2402 442.3125 L 1528.9336 453.26172 C 1530.1869 454.22009 1532.3984 455.28533 1535.5684 456.46484 C 1538.7382 457.64436 1542.6804 458.23633 1547.3984 458.23633 C 1553.5172 458.23633 1558.7521 457.0563 1563.1016 454.69727 C 1567.5247 452.26453 1569.7363 448.2096 1569.7363 442.5332 C 1569.7363 438.3312 1568.3366 435.19892 1565.5352 433.13477 C 1562.7338 431.07065 1559.1937 429.59561 1554.918 428.71094 C 1552.2641 428.19492 1550.2743 427.56923 1548.9473 426.83203 C 1547.6203 426.09483 1546.959 425.20981 1546.959 424.17773 C 1546.959 423.07196 1547.5471 422.22452 1548.7266 421.63477 C 1549.9798 421.04501 1551.5657 420.75 1553.4824 420.75 C 1555.694 420.75 1557.7214 421.11823 1559.5645 421.85547 C 1561.4074 422.59267 1562.7696 423.29354 1563.6543 423.95703 L 1569.0723 414.11523 C 1568.0401 413.45174 1565.8662 412.63998 1562.5488 411.68164 C 1559.2315 410.7233 1555.5823 410.24609 1551.6016 410.24609 z M 1458.0625 410.24805 C 1452.2865 412.33466 1446.4682 414.40632 1440.627 416.46875 C 1438.9457 417.99638 1437.5124 419.74938 1436.3477 421.74609 C 1434.3572 425.28468 1433.3594 429.26436 1433.3594 433.6875 C 1433.3594 438.84788 1434.4661 443.27108 1436.6777 446.95703 C 1438.963 450.64302 1442.0616 453.44266 1445.9688 455.35938 C 1449.8759 457.27605 1454.3347 458.23633 1459.3477 458.23633 C 1469.9633 458.23633 1477.3366 456.02279 1481.4648 451.59961 L 1474.2754 441.0957 C 1472.6535 442.42266 1470.5885 443.60269 1468.082 444.63477 C 1465.5756 445.66684 1462.8849 446.18359 1460.0098 446.18359 C 1456.8399 446.18359 1454.2977 445.26098 1452.3809 443.41797 C 1450.4643 441.50126 1449.3951 439.21637 1449.1738 436.5625 L 1482.127 436.5625 C 1482.2007 436.194 1482.2363 435.41975 1482.2363 434.24023 C 1482.2363 426.49969 1480.0267 420.5658 1475.6035 416.4375 C 1471.2624 412.3171 1465.4146 410.25589 1458.0625 410.24805 z M 1458.2422 421.19336 C 1460.675 421.19336 1462.5916 422.0388 1463.9922 423.73438 C 1465.4665 425.35621 1466.2763 427.38563 1466.4238 429.81836 L 1449.6152 429.81836 C 1449.7626 427.31189 1450.6122 425.24683 1452.1602 423.625 C 1453.782 422.00317 1455.8094 421.19336 1458.2422 421.19336 z M 1424.293 422.16992 C 1419.6689 423.7695 1415.0304 425.36352 1410.3691 426.94922 C 1410.6698 427.83448 1410.8574 428.78805 1410.9199 429.81836 L 1401.8945 429.81836 C 1394.0122 432.47344 1386.0905 435.11438 1378.1094 437.73242 C 1378.5474 441.19594 1379.5642 444.27433 1381.1738 446.95703 C 1383.4592 450.64302 1386.5538 453.44266 1390.4609 455.35938 C 1394.3681 457.27605 1398.8308 458.23633 1403.8438 458.23633 C 1414.4594 458.23633 1421.8288 456.02279 1425.957 451.59961 L 1418.7695 441.0957 C 1417.1477 442.42266 1415.0846 443.60269 1412.5781 444.63477 C 1410.0717 445.66684 1407.3809 446.18359 1404.5059 446.18359 C 1401.3359 446.18359 1398.7917 445.26098 1396.875 443.41797 C 1394.9583 441.50126 1393.8893 439.21637 1393.668 436.5625 L 1426.6211 436.5625 C 1426.6948 436.194 1426.7324 435.41975 1426.7324 434.24023 C 1426.7324 429.55295 1425.9154 425.53284 1424.293 422.16992 z M 1365.3926 441.86523 C 1357.6588 444.3683 1349.8855 446.85663 1342.0684 449.32812 L 1345.1777 456.9082 L 1360.4395 456.9082 L 1365.3926 441.86523 z M 1324.8418 454.72852 C 1322.5053 455.45529 1320.1733 456.18399 1317.8301 456.9082 L 1323.9473 456.9082 L 1324.8418 454.72852 z M 1075.9883 551.2207 C 1068.2084 551.2207 1061.2422 552.84636 1055.0879 556.09766 C 1049.0499 559.34888 1044.2883 563.87767 1040.8047 569.68359 C 1037.4372 575.4894 1035.752 581.99209 1035.752 589.19141 C 1035.752 596.39069 1037.4372 602.8933 1040.8047 608.69922 C 1044.2883 614.38896 1049.0499 618.86003 1055.0879 622.11133 C 1061.2422 625.24645 1068.2084 626.8125 1075.9883 626.8125 C 1083.652 626.8125 1090.503 625.24645 1096.541 622.11133 C 1102.5792 618.86003 1107.2831 614.38896 1110.6504 608.69922 C 1114.0178 602.8933 1115.6992 596.39069 1115.6992 589.19141 C 1115.6992 581.99209 1114.0178 575.4894 1110.6504 569.68359 C 1107.2831 563.87767 1102.5792 559.34888 1096.541 556.09766 C 1090.503 552.84636 1083.652 551.2207 1075.9883 551.2207 z M 1179.7305 551.2207 C 1176.0147 551.2207 1172.4152 551.85939 1168.9316 553.13672 C 1165.4481 554.29787 1162.4892 555.86583 1160.0508 557.83984 C 1157.6123 559.69771 1156.0425 561.55624 1155.3457 563.41406 L 1155.3457 553.31055 L 1129.5684 553.31055 L 1129.5684 624.72266 L 1155.3457 624.72266 L 1155.3457 586.75195 C 1155.3457 581.52668 1156.5673 577.40381 1159.0059 574.38477 C 1161.5604 571.36568 1164.8676 569.85742 1168.9316 569.85742 C 1176.4792 569.85742 1180.2539 575.48858 1180.2539 586.75195 L 1180.2539 624.72266 L 1204.1172 624.72266 L 1204.1172 586.75195 C 1204.1172 581.64279 1205.3349 577.5796 1207.7734 574.56055 C 1210.3279 571.42535 1213.6391 569.85742 1217.7031 569.85742 C 1221.9995 569.85742 1224.9584 571.30999 1226.584 574.21289 C 1228.3257 576.99976 1229.1992 581.17832 1229.1992 586.75195 L 1229.1992 624.72266 L 1254.8008 624.72266 L 1254.8008 582.74609 C 1254.8008 572.29551 1252.3055 564.45773 1247.3125 559.23242 C 1242.4356 553.89104 1235.7578 551.2207 1227.2812 551.2207 C 1221.3593 551.2207 1215.9012 552.67128 1210.9082 555.57422 C 1206.0313 558.36098 1203.0127 561.49688 1201.8516 564.98047 C 1197.7875 555.80718 1190.4132 551.2207 1179.7305 551.2207 z M 1320.5703 551.2207 C 1314.416 551.2207 1309.1909 552.55587 1304.8945 555.22656 C 1300.5983 557.89725 1297.695 560.74267 1296.1855 563.76172 L 1296.1855 553.31055 L 1270.0586 553.31055 L 1270.0586 660.95117 L 1296.0098 660.95117 L 1296.0098 613.05273 C 1296.5904 614.56224 1297.9833 616.42077 1300.1895 618.62695 C 1302.3958 620.83321 1305.2411 622.74935 1308.7246 624.375 C 1312.3243 626.00065 1316.2739 626.8125 1320.5703 626.8125 C 1327.3051 626.8125 1333.2844 625.13108 1338.5098 621.76367 C 1343.8512 618.39626 1347.972 613.86552 1350.875 608.17578 C 1353.894 602.36994 1355.4043 595.98266 1355.4043 589.01562 C 1355.4043 582.04859 1353.894 575.72099 1350.875 570.03125 C 1347.972 564.22533 1343.8512 559.63889 1338.5098 556.27148 C 1333.2844 552.90408 1327.3051 551.2207 1320.5703 551.2207 z M 1415.0527 551.2207 C 1409.1308 551.2207 1404.1941 552.55587 1400.2461 555.22656 C 1396.4142 557.78115 1393.8016 560.51112 1392.4082 563.41406 L 1392.4082 553.31055 L 1366.457 553.31055 L 1366.457 624.72266 L 1392.4082 624.72266 L 1392.4082 588.66797 C 1392.4082 584.71995 1393.7453 581.00308 1396.416 577.51953 C 1399.2029 573.91987 1403.0929 572.12305 1408.0859 572.12305 C 1410.8728 572.12305 1413.2526 572.58669 1415.2266 573.51562 C 1417.3166 574.4446 1418.8846 575.54693 1419.9297 576.82422 L 1430.2051 555.57422 C 1428.3471 554.41307 1426.0848 553.42806 1423.4141 552.61523 C 1420.8594 551.68626 1418.0718 551.2207 1415.0527 551.2207 z M 1470.2344 551.2207 C 1462.4546 551.2207 1455.6037 552.84636 1449.6816 556.09766 C 1443.8758 559.34888 1439.3471 563.76231 1436.0957 569.33594 C 1432.9606 574.90957 1431.3926 581.17945 1431.3926 588.14648 C 1431.3926 596.27466 1433.1337 603.24095 1436.6172 609.04688 C 1440.2168 614.85272 1445.0938 619.26611 1451.248 622.28516 C 1457.4022 625.30424 1464.4281 626.8125 1472.3242 626.8125 C 1489.0451 626.8125 1500.6556 623.33035 1507.1582 616.36328 L 1495.8359 599.81445 C 1493.2813 601.90461 1490.03 603.76302 1486.082 605.38867 C 1482.1341 607.01428 1477.8977 607.82617 1473.3691 607.82617 C 1468.3761 607.82617 1464.3686 606.3756 1461.3496 603.47266 C 1458.3304 600.45361 1456.6471 596.8541 1456.2988 592.67383 L 1508.2031 592.67383 C 1508.3195 592.09329 1508.377 590.87353 1508.377 589.01562 C 1508.377 576.82336 1504.8928 567.47721 1497.9258 560.97461 C 1491.0749 554.47201 1481.8461 551.2207 1470.2344 551.2207 z M 1554.7012 551.2207 C 1545.7602 551.2207 1538.1532 553.07912 1531.8828 556.79492 C 1525.7286 560.51069 1522.6523 565.73593 1522.6523 572.4707 C 1522.6523 579.08937 1524.8591 584.13953 1529.2715 587.62305 C 1533.8001 590.99049 1539.1406 593.31255 1545.2949 594.58984 C 1549.4751 595.51881 1552.5514 596.5635 1554.5254 597.72461 C 1556.4994 598.76972 1557.4863 600.27993 1557.4863 602.25391 C 1557.4863 604.22795 1556.4417 605.73625 1554.3516 606.78125 C 1552.2614 607.82633 1549.3583 608.34961 1545.6426 608.34961 C 1541.9268 608.34961 1538.4446 607.65316 1535.1934 606.25977 C 1531.942 604.75022 1529.3275 603.24197 1527.3535 601.73242 L 1518.9941 618.97656 C 1520.9681 620.48607 1524.4503 622.16756 1529.4434 624.02539 C 1534.4365 625.88329 1540.6505 626.8125 1548.082 626.8125 C 1557.7198 626.8125 1565.9636 624.956 1572.8145 621.24023 C 1579.7816 617.4084 1583.2656 611.02112 1583.2656 602.08008 C 1583.2656 595.46141 1581.059 590.52474 1576.6465 587.27344 C 1572.234 584.02214 1566.6607 581.70011 1559.9258 580.30664 C 1555.7456 579.49385 1552.6097 578.5088 1550.5195 577.34766 C 1548.4294 576.18643 1547.3848 574.79362 1547.3848 573.16797 C 1547.3848 571.42625 1548.314 570.08909 1550.1719 569.16016 C 1552.1458 568.23119 1554.6411 567.76758 1557.6602 567.76758 C 1561.1437 567.76758 1564.3372 568.34667 1567.2402 569.50781 C 1570.1431 570.66903 1572.2941 571.77332 1573.6875 572.81836 L 1582.2207 557.31641 C 1580.5951 556.27137 1577.1705 554.99388 1571.9453 553.48438 C 1566.72 551.97483 1560.9716 551.2207 1554.7012 551.2207 z M 1629.541 551.2207 C 1620.6 551.2207 1612.9949 553.07912 1606.7246 556.79492 C 1600.5703 560.51069 1597.4941 565.73593 1597.4941 572.4707 C 1597.4941 579.08937 1599.699 584.13953 1604.1113 587.62305 C 1608.64 590.99049 1613.9826 593.31255 1620.1367 594.58984 C 1624.317 595.51881 1627.3952 596.5635 1629.3691 597.72461 C 1631.3431 598.76972 1632.3281 600.27993 1632.3281 602.25391 C 1632.3281 604.22795 1631.2834 605.73625 1629.1934 606.78125 C 1627.1033 607.82633 1624.2001 608.34961 1620.4844 608.34961 C 1616.7686 608.34961 1613.2845 607.65316 1610.0332 606.25977 C 1606.782 604.75022 1604.1693 603.24197 1602.1953 601.73242 L 1593.834 618.97656 C 1595.808 620.48607 1599.2922 622.16756 1604.2852 624.02539 C 1609.2782 625.88329 1615.4923 626.8125 1622.9238 626.8125 C 1632.5615 626.8125 1640.8054 624.956 1647.6562 621.24023 C 1654.6234 617.4084 1658.1055 611.02112 1658.1055 602.08008 C 1658.1055 595.46141 1655.9008 590.52474 1651.4883 587.27344 C 1647.0758 584.02214 1641.5024 581.70011 1634.7676 580.30664 C 1630.5873 579.49385 1627.4514 578.5088 1625.3613 577.34766 C 1623.2712 576.18643 1622.2266 574.79362 1622.2266 573.16797 C 1622.2266 571.42625 1623.1558 570.08909 1625.0137 569.16016 C 1626.9876 568.23119 1629.4848 567.76758 1632.5039 567.76758 C 1635.9873 567.76758 1639.1791 568.34667 1642.082 569.50781 C 1644.985 570.66903 1647.134 571.77332 1648.5273 572.81836 L 1657.0605 557.31641 C 1655.4349 556.27137 1652.0104 554.99388 1646.7852 553.48438 C 1641.5598 551.97483 1635.8114 551.2207 1629.541 551.2207 z M 1708.7383 551.2207 C 1700.9584 551.2207 1693.9922 552.84636 1687.8379 556.09766 C 1681.7999 559.34888 1677.0382 563.87767 1673.5547 569.68359 C 1670.1873 575.4894 1668.502 581.99209 1668.502 589.19141 C 1668.502 596.39069 1670.1873 602.8933 1673.5547 608.69922 C 1677.0382 614.38896 1681.7999 618.86003 1687.8379 622.11133 C 1693.9922 625.24645 1700.9584 626.8125 1708.7383 626.8125 C 1716.402 626.8125 1723.253 625.24645 1729.291 622.11133 C 1735.3292 618.86003 1740.031 614.38896 1743.3984 608.69922 C 1746.7659 602.8933 1748.4492 596.39069 1748.4492 589.19141 C 1748.4492 581.99209 1746.7659 575.4894 1743.3984 569.68359 C 1740.031 563.87767 1735.3292 559.34888 1729.291 556.09766 C 1723.253 552.84636 1716.402 551.2207 1708.7383 551.2207 z M 1808.6484 551.2207 C 1802.7265 551.2207 1797.7918 552.55587 1793.8438 555.22656 C 1790.012 557.78115 1787.3993 560.51112 1786.0059 563.41406 L 1786.0059 553.31055 L 1760.0527 553.31055 L 1760.0527 624.72266 L 1786.0059 624.72266 L 1786.0059 588.66797 C 1786.0059 584.71995 1787.341 581.00308 1790.0117 577.51953 C 1792.7985 573.91987 1796.6886 572.12305 1801.6816 572.12305 C 1804.4684 572.12305 1806.8502 572.58669 1808.8242 573.51562 C 1810.9143 574.4446 1812.4804 575.54693 1813.5254 576.82422 L 1823.8027 555.57422 C 1821.9448 554.41307 1819.6803 553.42806 1817.0098 552.61523 C 1814.4551 551.68626 1811.6676 551.2207 1808.6484 551.2207 z M 962.73242 555.58594 C 953.31507 558.05088 943.9281 560.51073 934.51367 562.97266 C 934.42821 564.3794 934.38477 565.80438 934.38477 567.24609 C 934.38477 578.5095 936.76642 588.6675 941.52734 597.72461 C 946.40422 606.78179 953.48791 613.92313 962.77734 619.14844 C 972.06663 624.2576 983.15586 626.8125 996.04492 626.8125 C 1001.0379 626.8125 1005.915 626.40857 1010.6758 625.5957 C 1015.5527 624.78292 1019.2099 623.73624 1021.6484 622.45898 L 1021.6484 596.67969 C 1015.7264 600.97603 1007.1922 603.125 996.04492 603.125 C 989.19392 603.125 983.09728 601.61671 977.75586 598.59766 C 972.53062 595.57857 968.46544 591.39806 965.5625 586.05664 C 962.6596 580.59912 961.20898 574.32927 961.20898 567.24609 C 961.20898 563.07541 961.72567 559.19294 962.73242 555.58594 z M 1470.582 568.46289 C 1474.4139 568.46289 1477.4324 569.80001 1479.6387 572.4707 C 1481.961 575.02529 1483.2385 578.21692 1483.4707 582.04883 L 1456.9961 582.04883 C 1457.2282 578.10081 1458.5636 574.84947 1461.002 572.29492 C 1463.5566 569.74034 1466.7502 568.46289 1470.582 568.46289 z M 1312.9062 571.59766 C 1317.551 571.59766 1321.4987 573.28294 1324.75 576.65039 C 1328.1174 579.90169 1329.8027 584.02257 1329.8027 589.01562 C 1329.8027 594.00872 1328.1174 598.13147 1324.75 601.38281 C 1321.4987 604.63411 1317.551 606.25977 1312.9062 606.25977 C 1308.0294 606.25977 1304.0239 604.63411 1300.8887 601.38281 C 1297.7535 598.13147 1296.1855 594.00872 1296.1855 589.01562 C 1296.1855 584.02257 1297.7535 579.90169 1300.8887 576.65039 C 1304.0239 573.28294 1308.0294 571.59766 1312.9062 571.59766 z M 1075.9883 572.64453 C 1080.5168 572.64453 1084.1164 574.21242 1086.7871 577.34766 C 1089.5739 580.36671 1090.9668 584.25486 1090.9668 589.01562 C 1090.9668 593.89258 1089.5739 597.84025 1086.7871 600.85938 C 1084.1164 603.87842 1080.5168 605.38867 1075.9883 605.38867 C 1071.3436 605.38867 1067.6267 603.87842 1064.8398 600.85938 C 1062.053 597.84025 1060.6602 593.89258 1060.6602 589.01562 C 1060.6602 584.25486 1062.053 580.36671 1064.8398 577.34766 C 1067.6267 574.21242 1071.3436 572.64453 1075.9883 572.64453 z M 1708.7383 572.64453 C 1713.2669 572.64453 1716.8664 574.21242 1719.5371 577.34766 C 1722.3239 580.36671 1723.7168 584.25486 1723.7168 589.01562 C 1723.7168 593.89258 1722.3239 597.84025 1719.5371 600.85938 C 1716.8664 603.87842 1713.2669 605.38867 1708.7383 605.38867 C 1704.0936 605.38867 1700.3786 603.87842 1697.5918 600.85938 C 1694.805 597.84025 1693.4102 593.89258 1693.4102 589.01562 C 1693.4102 584.25486 1694.805 580.36671 1697.5918 577.34766 C 1700.3786 574.21242 1704.0936 572.64453 1708.7383 572.64453 z "
       style="font-style:normal;font-variant:normal;font-weight:bold;font-stretch:normal;font-size:25.4263px;line-height:1.25;font-family:'League Spartan';font-variant-ligatures:normal;font-variant-caps:normal;font-variant-numeric:normal;font-variant-east-asian:normal;writing-mode:lr-tb;fill:#ffffff;fill-opacity:1;stroke-width:2.13439"
       id="path1041-1" />
  </g>
</svg>
